<svg width="155" height="13" viewBox="0 0 155 13" fill="none" xmlns="http://www.w3.org/2000/svg">
<path d="M8.408 0.2H10.76V12H9.464V1.288L9.504 1.304L6.496 12H4.544L1.52 1.296L1.56 1.28V12H0.264V0.2H2.616L5.512 10.904H5.496L8.408 0.2ZM20.5593 12.16C19.8713 12.16 19.2393 12.024 18.6633 11.752C18.0926 11.48 17.5939 11.0853 17.1673 10.568C16.7459 10.0453 16.4179 9.408 16.1833 8.656C15.9539 7.904 15.8393 7.048 15.8393 6.088C15.8393 5.128 15.9539 4.27467 16.1833 3.528C16.4179 2.776 16.7459 2.144 17.1673 1.632C17.5939 1.11467 18.0953 0.722666 18.6713 0.455999C19.2473 0.189333 19.8766 0.0559998 20.5593 0.0559998C21.2473 0.0559998 21.8793 0.189333 22.4553 0.455999C23.0313 0.722666 23.5299 1.11467 23.9513 1.632C24.3779 2.144 24.7059 2.776 24.9353 3.528C25.1699 4.27467 25.2873 5.128 25.2873 6.088C25.2873 7.048 25.1699 7.904 24.9353 8.656C24.7059 9.408 24.3779 10.0453 23.9513 10.568C23.5299 11.0853 23.0313 11.48 22.4553 11.752C21.8793 12.024 21.2473 12.16 20.5593 12.16ZM20.5593 10.928C21.2153 10.928 21.7939 10.7493 22.2953 10.392C22.7966 10.0347 23.1886 9.49867 23.4713 8.784C23.7539 8.064 23.8953 7.16533 23.8953 6.088C23.8953 5.00533 23.7513 4.10933 23.4633 3.4C23.1806 2.69067 22.7886 2.16267 22.2873 1.816C21.7859 1.46933 21.2099 1.296 20.5593 1.296C19.9139 1.296 19.3379 1.46933 18.8313 1.816C18.3299 2.16267 17.9353 2.69067 17.6473 3.4C17.3646 4.10933 17.2233 5.00533 17.2233 6.088C17.2233 7.17067 17.3646 8.072 17.6473 8.792C17.9353 9.50667 18.3299 10.0427 18.8313 10.4C19.3379 10.752 19.9139 10.928 20.5593 10.928ZM30.2218 12V0.2H33.1818C33.9604 0.2 34.6618 0.336 35.2858 0.608C35.9151 0.88 36.4511 1.272 36.8938 1.784C37.3418 2.29067 37.6858 2.90933 37.9258 3.64C38.1658 4.36533 38.2858 5.184 38.2858 6.096C38.2858 7.008 38.1658 7.82933 37.9258 8.56C37.6858 9.28533 37.3418 9.904 36.8938 10.416C36.4511 10.928 35.9151 11.32 35.2858 11.592C34.6618 11.864 33.9604 12 33.1818 12H30.2218ZM31.5978 11.576L30.9818 10.8H33.0218C33.7791 10.8 34.4484 10.6107 35.0298 10.232C35.6164 9.848 36.0751 9.304 36.4058 8.6C36.7364 7.896 36.9018 7.06133 36.9018 6.096C36.9018 5.12533 36.7364 4.29067 36.4058 3.592C36.0751 2.888 35.6164 2.34667 35.0298 1.968C34.4484 1.58933 33.7791 1.4 33.0218 1.4H30.9818L31.5978 0.624V11.576ZM43.9738 1.4L44.5898 0.624V5.952L44.2538 5.48H48.7818V6.68H44.2538L44.5898 6.208V11.576L43.9738 10.8H49.6698V12H43.2218V0.2H49.6698V1.4H43.9738ZM54.9249 12V0.2H59.0209C60.1035 0.2 60.9275 0.456 61.4929 0.967999C62.0582 1.48 62.3409 2.26133 62.3409 3.312C62.3409 3.94133 62.2209 4.47733 61.9809 4.92C61.7462 5.35733 61.4609 5.696 61.1249 5.936C60.7942 6.176 60.4875 6.312 60.2049 6.344C60.4929 6.36533 60.7755 6.44533 61.0529 6.584C61.3355 6.71733 61.5702 6.92533 61.7569 7.208C61.9435 7.49067 62.0369 7.86933 62.0369 8.344C62.0369 8.78133 62.0369 9.22933 62.0369 9.688C62.0369 10.1413 62.0369 10.5893 62.0369 11.032C62.0369 11.2613 62.0555 11.4667 62.0929 11.648C62.1302 11.824 62.1729 11.9413 62.2209 12H60.8449C60.8075 11.9307 60.7702 11.8107 60.7329 11.64C60.6955 11.4693 60.6769 11.2667 60.6769 11.032C60.6769 10.6213 60.6769 10.2027 60.6769 9.776C60.6769 9.34933 60.6769 8.928 60.6769 8.512C60.6769 7.98933 60.5115 7.6 60.1809 7.344C59.8502 7.088 59.3835 6.96 58.7809 6.96H55.8769L56.2609 6.44V12H54.9249ZM56.2609 6.328L55.8769 5.76H58.7969C59.1915 5.76 59.5489 5.664 59.8689 5.472C60.1942 5.27467 60.4529 5.00267 60.6449 4.656C60.8422 4.304 60.9409 3.89333 60.9409 3.424C60.9409 2.69333 60.7489 2.17333 60.3649 1.864C59.9809 1.55467 59.4262 1.4 58.7009 1.4H55.8449L56.2609 0.808V6.328ZM68.7685 12H67.4405V0.2H69.6725L74.6805 11.216L74.5765 11.28V0.2H75.9045V12H73.6405L68.6485 0.999999L68.7685 0.943999V12ZM91.7273 12.16C90.9113 12.16 90.2126 12.032 89.6313 11.776C89.0553 11.5147 88.6126 11.1227 88.3033 10.6C87.9939 10.0773 87.8393 9.42667 87.8393 8.648C87.8393 8.54133 87.8393 8.45067 87.8393 8.376C87.8393 8.30133 87.8393 8.21067 87.8393 8.104H89.2073C89.2073 8.20533 89.2073 8.29067 89.2073 8.36C89.2073 8.42933 89.2073 8.51733 89.2073 8.624C89.2073 9.44 89.4206 10.0293 89.8473 10.392C90.2739 10.7493 90.8953 10.928 91.7113 10.928C92.5539 10.928 93.1913 10.784 93.6233 10.496C94.0553 10.208 94.2713 9.74133 94.2713 9.096C94.2713 8.64267 94.1459 8.26667 93.8953 7.968C93.6499 7.664 93.3086 7.408 92.8713 7.2C92.4339 6.98667 91.9246 6.792 91.3433 6.616C90.6873 6.41333 90.1006 6.15733 89.5833 5.848C89.0713 5.53867 88.6659 5.15733 88.3673 4.704C88.0739 4.24533 87.9273 3.688 87.9273 3.032C87.9273 2.392 88.0819 1.85067 88.3913 1.408C88.7059 0.965333 89.1433 0.629333 89.7033 0.4C90.2633 0.170666 90.9139 0.0559998 91.6553 0.0559998C92.4393 0.0559998 93.1193 0.178666 93.6953 0.424C94.2766 0.664 94.7246 1.032 95.0393 1.528C95.3593 2.01867 95.5193 2.63733 95.5193 3.384C95.5193 3.50133 95.5193 3.60267 95.5193 3.688C95.5193 3.768 95.5193 3.86667 95.5193 3.984H94.1513C94.1513 3.88267 94.1513 3.792 94.1513 3.712C94.1513 3.632 94.1513 3.54133 94.1513 3.44C94.1513 2.66133 93.9406 2.10933 93.5193 1.784C93.0979 1.45333 92.4846 1.288 91.6793 1.288C90.9059 1.288 90.3086 1.424 89.8873 1.696C89.4659 1.968 89.2553 2.41333 89.2553 3.032C89.2553 3.496 89.3833 3.88 89.6393 4.184C89.9006 4.48267 90.2553 4.73867 90.7033 4.952C91.1513 5.16 91.6633 5.36 92.2393 5.552C92.9379 5.78133 93.5379 6.04267 94.0393 6.336C94.5459 6.624 94.9326 6.984 95.1993 7.416C95.4713 7.848 95.6073 8.392 95.6073 9.048C95.6073 9.704 95.4499 10.264 95.1353 10.728C94.8259 11.192 94.3806 11.5467 93.7993 11.792C93.2233 12.0373 92.5326 12.16 91.7273 12.16ZM107.59 1.4H104.182L104.494 0.624V12H103.134V0.624L103.518 1.4H100.046V0.2H107.59V1.4ZM120.451 7.648C120.451 9.17867 120.093 10.3147 119.379 11.056C118.664 11.792 117.669 12.16 116.395 12.16C115.125 12.16 114.133 11.792 113.419 11.056C112.704 10.3147 112.347 9.17867 112.347 7.648C112.347 7.41333 112.347 7.16533 112.347 6.904C112.347 6.63733 112.347 6.35733 112.347 6.064V0.2H113.715V6.184C113.715 6.46133 113.715 6.72 113.715 6.96C113.715 7.2 113.715 7.42133 113.715 7.624C113.715 8.808 113.941 9.656 114.395 10.168C114.848 10.6747 115.515 10.928 116.395 10.928C117.28 10.928 117.949 10.6747 118.403 10.168C118.861 9.656 119.091 8.808 119.091 7.624V0.2H120.451V7.648ZM125.706 12V0.2H128.666C129.445 0.2 130.146 0.336 130.77 0.608C131.399 0.88 131.935 1.272 132.378 1.784C132.826 2.29067 133.17 2.90933 133.41 3.64C133.65 4.36533 133.77 5.184 133.77 6.096C133.77 7.008 133.65 7.82933 133.41 8.56C133.17 9.28533 132.826 9.904 132.378 10.416C131.935 10.928 131.399 11.32 130.77 11.592C130.146 11.864 129.445 12 128.666 12H125.706ZM127.082 11.576L126.466 10.8H128.506C129.263 10.8 129.933 10.6107 130.514 10.232C131.101 9.848 131.559 9.304 131.89 8.6C132.221 7.896 132.386 7.06133 132.386 6.096C132.386 5.12533 132.221 4.29067 131.89 3.592C131.559 2.888 131.101 2.34667 130.514 1.968C129.933 1.58933 129.263 1.4 128.506 1.4H126.466L127.082 0.624V11.576ZM138.762 12V0.2H140.106V12H138.762ZM149.825 12.16C149.137 12.16 148.505 12.024 147.929 11.752C147.358 11.48 146.86 11.0853 146.433 10.568C146.012 10.0453 145.684 9.408 145.449 8.656C145.22 7.904 145.105 7.048 145.105 6.088C145.105 5.128 145.22 4.27467 145.449 3.528C145.684 2.776 146.012 2.144 146.433 1.632C146.86 1.11467 147.361 0.722666 147.937 0.455999C148.513 0.189333 149.142 0.0559998 149.825 0.0559998C150.513 0.0559998 151.145 0.189333 151.721 0.455999C152.297 0.722666 152.796 1.11467 153.217 1.632C153.644 2.144 153.972 2.776 154.201 3.528C154.436 4.27467 154.553 5.128 154.553 6.088C154.553 7.048 154.436 7.904 154.201 8.656C153.972 9.408 153.644 10.0453 153.217 10.568C152.796 11.0853 152.297 11.48 151.721 11.752C151.145 12.024 150.513 12.16 149.825 12.16ZM149.825 10.928C150.481 10.928 151.06 10.7493 151.561 10.392C152.062 10.0347 152.454 9.49867 152.737 8.784C153.02 8.064 153.161 7.16533 153.161 6.088C153.161 5.00533 153.017 4.10933 152.729 3.4C152.446 2.69067 152.054 2.16267 151.553 1.816C151.052 1.46933 150.476 1.296 149.825 1.296C149.18 1.296 148.604 1.46933 148.097 1.816C147.596 2.16267 147.201 2.69067 146.913 3.4C146.63 4.10933 146.489 5.00533 146.489 6.088C146.489 7.17067 146.63 8.072 146.913 8.792C147.201 9.50667 147.596 10.0427 148.097 10.4C148.604 10.752 149.18 10.928 149.825 10.928Z" fill="#EF6D58"/>
</svg>
