<svg width="508" height="234" viewBox="0 0 508 234" fill="none" xmlns="http://www.w3.org/2000/svg">
<path d="M7.9 57L0.34 3.9H13.552L18.664 54.66L16.864 54.552L25.072 3.9H40.912L49.084 54.552L47.284 54.66L52.396 3.9H65.608L58.048 57H38.392L32.344 12.468H33.64L27.592 57H7.9ZM72.9579 41.556V33.528H96.8979L95.8179 35.4C95.8179 35.208 95.8179 35.016 95.8179 34.824C95.8179 34.608 95.8179 34.416 95.8179 34.248C95.8179 33.168 95.5419 32.1 94.9899 31.044C94.4379 29.964 93.5619 29.076 92.3619 28.38C91.1619 27.66 89.5899 27.3 87.6459 27.3C85.7259 27.3 84.0939 27.708 82.7499 28.524C81.4299 29.316 80.4219 30.492 79.7259 32.052C79.0539 33.588 78.7179 35.448 78.7179 37.632C78.7179 39.912 79.0419 41.868 79.6899 43.5C80.3619 45.108 81.3819 46.344 82.7499 47.208C84.1179 48.048 85.8699 48.468 88.0059 48.468C89.3259 48.468 90.4539 48.36 91.3899 48.144C92.3499 47.928 93.1179 47.652 93.6939 47.316C94.2939 46.956 94.7379 46.572 95.0259 46.164C95.3379 45.732 95.5299 45.312 95.6019 44.904H108.274C108.13 46.56 107.554 48.168 106.546 49.728C105.538 51.264 104.146 52.656 102.37 53.904C100.618 55.128 98.4819 56.1 95.9619 56.82C93.4659 57.54 90.6339 57.9 87.4659 57.9C83.1219 57.9 79.3419 57.06 76.1259 55.38C72.9099 53.676 70.4139 51.324 68.6379 48.324C66.8859 45.324 66.0099 41.868 66.0099 37.956C66.0099 33.972 66.9099 30.492 68.7099 27.516C70.5099 24.516 73.0179 22.188 76.2339 20.532C79.4739 18.852 83.2179 18.012 87.4659 18.012C91.8579 18.012 95.6499 18.864 98.8419 20.568C102.034 22.248 104.494 24.624 106.222 27.696C107.95 30.768 108.814 34.38 108.814 38.532C108.814 39.18 108.802 39.768 108.778 40.296C108.754 40.824 108.718 41.244 108.67 41.556H72.9579ZM114.852 14.952C112.98 14.952 111.456 14.412 110.28 13.332C109.104 12.228 108.516 10.716 108.516 8.796C108.516 6.852 109.164 5.256 110.46 4.008C111.756 2.76 113.592 2.136 115.968 2.136C118.344 2.136 120.168 2.928 121.44 4.512C122.736 6.072 123.384 8.1 123.384 10.596C123.384 12.948 122.784 15.024 121.584 16.824C120.408 18.6 118.932 20.112 117.156 21.36C115.404 22.584 113.676 23.556 111.972 24.276L110.496 21.288C111.6 20.808 112.728 20.184 113.88 19.416C115.056 18.624 116.04 17.76 116.832 16.824C117.624 15.864 118.032 14.916 118.056 13.98C117.96 14.076 117.624 14.268 117.048 14.556C116.496 14.82 115.764 14.952 114.852 14.952ZM128.254 57V18.768H141.106V32.448L138.694 30.72C139.03 28.824 139.558 27.096 140.278 25.536C140.998 23.952 141.922 22.608 143.05 21.504C144.202 20.376 145.534 19.512 147.046 18.912C148.582 18.312 150.31 18.012 152.23 18.012C153.79 18.012 154.978 18.12 155.794 18.336C156.634 18.552 157.162 18.72 157.378 18.84L155.47 30.18C155.254 30.06 154.774 29.88 154.03 29.64C153.286 29.376 152.362 29.244 151.258 29.244C149.362 29.244 147.754 29.556 146.434 30.18C145.138 30.78 144.094 31.596 143.302 32.628C142.534 33.66 141.97 34.812 141.61 36.084C141.274 37.356 141.106 38.628 141.106 39.9V57H128.254ZM165.044 41.556V33.528H188.984L187.904 35.4C187.904 35.208 187.904 35.016 187.904 34.824C187.904 34.608 187.904 34.416 187.904 34.248C187.904 33.168 187.628 32.1 187.076 31.044C186.524 29.964 185.648 29.076 184.448 28.38C183.248 27.66 181.676 27.3 179.732 27.3C177.812 27.3 176.18 27.708 174.836 28.524C173.516 29.316 172.508 30.492 171.812 32.052C171.14 33.588 170.804 35.448 170.804 37.632C170.804 39.912 171.128 41.868 171.776 43.5C172.448 45.108 173.468 46.344 174.836 47.208C176.204 48.048 177.956 48.468 180.092 48.468C181.412 48.468 182.54 48.36 183.476 48.144C184.436 47.928 185.204 47.652 185.78 47.316C186.38 46.956 186.824 46.572 187.112 46.164C187.424 45.732 187.616 45.312 187.688 44.904H200.36C200.216 46.56 199.64 48.168 198.632 49.728C197.624 51.264 196.232 52.656 194.456 53.904C192.704 55.128 190.568 56.1 188.048 56.82C185.552 57.54 182.72 57.9 179.552 57.9C175.208 57.9 171.428 57.06 168.212 55.38C164.996 53.676 162.5 51.324 160.724 48.324C158.972 45.324 158.096 41.868 158.096 37.956C158.096 33.972 158.996 30.492 160.796 27.516C162.596 24.516 165.104 22.188 168.32 20.532C171.56 18.852 175.304 18.012 179.552 18.012C183.944 18.012 187.736 18.864 190.928 20.568C194.12 22.248 196.58 24.624 198.308 27.696C200.036 30.768 200.9 34.38 200.9 38.532C200.9 39.18 200.888 39.768 200.864 40.296C200.84 40.824 200.804 41.244 200.756 41.556H165.044ZM264.641 3.9V57H251.753V31.98L257.549 35.436H228.245L234.041 32.16V57H221.153V3.9H234.041V29.1L228.245 25.716H257.549L251.753 29.064V3.9H264.641ZM275.833 41.556V33.528H299.773L298.693 35.4C298.693 35.208 298.693 35.016 298.693 34.824C298.693 34.608 298.693 34.416 298.693 34.248C298.693 33.168 298.417 32.1 297.865 31.044C297.313 29.964 296.437 29.076 295.237 28.38C294.037 27.66 292.465 27.3 290.521 27.3C288.601 27.3 286.969 27.708 285.625 28.524C284.305 29.316 283.297 30.492 282.601 32.052C281.929 33.588 281.593 35.448 281.593 37.632C281.593 39.912 281.917 41.868 282.565 43.5C283.237 45.108 284.257 46.344 285.625 47.208C286.993 48.048 288.745 48.468 290.881 48.468C292.201 48.468 293.329 48.36 294.265 48.144C295.225 47.928 295.993 47.652 296.569 47.316C297.169 46.956 297.613 46.572 297.901 46.164C298.213 45.732 298.405 45.312 298.477 44.904H311.149C311.005 46.56 310.429 48.168 309.421 49.728C308.413 51.264 307.021 52.656 305.245 53.904C303.493 55.128 301.357 56.1 298.837 56.82C296.341 57.54 293.509 57.9 290.341 57.9C285.997 57.9 282.217 57.06 279.001 55.38C275.785 53.676 273.289 51.324 271.513 48.324C269.761 45.324 268.885 41.868 268.885 37.956C268.885 33.972 269.785 30.492 271.585 27.516C273.385 24.516 275.893 22.188 279.109 20.532C282.349 18.852 286.093 18.012 290.341 18.012C294.733 18.012 298.525 18.864 301.717 20.568C304.909 22.248 307.369 24.624 309.097 27.696C310.825 30.768 311.689 34.38 311.689 38.532C311.689 39.18 311.677 39.768 311.653 40.296C311.629 40.824 311.593 41.244 311.545 41.556H275.833ZM328.938 0.731997V57H316.302V0.731997H328.938ZM335.066 72.732V18.768H347.918V72.732H335.066ZM359.474 57.9C356.45 57.9 353.678 57.072 351.158 55.416C348.662 53.736 346.67 51.492 345.182 48.684C343.694 45.852 342.95 42.696 342.95 39.216C342.95 39.12 342.95 39.024 342.95 38.928C342.95 38.808 342.95 38.688 342.95 38.568L347.918 38.46C347.918 38.532 347.918 38.616 347.918 38.712C347.918 38.784 347.918 38.844 347.918 38.892C347.918 40.572 348.302 42.024 349.07 43.248C349.862 44.448 350.87 45.372 352.094 46.02C353.342 46.644 354.626 46.956 355.946 46.956C358.082 46.956 359.978 46.212 361.634 44.724C363.29 43.236 364.118 40.884 364.118 37.668C364.118 34.452 363.29 32.136 361.634 30.72C360.002 29.28 358.106 28.56 355.946 28.56C354.65 28.56 353.378 28.872 352.13 29.496C350.906 30.096 349.898 30.984 349.106 32.16C348.314 33.312 347.918 34.74 347.918 36.444L342.95 36.12C342.95 32.616 343.694 29.508 345.182 26.796C346.67 24.084 348.662 21.948 351.158 20.388C353.678 18.804 356.45 18.012 359.474 18.012C362.57 18.012 365.474 18.768 368.186 20.28C370.922 21.792 373.13 24.012 374.81 26.94C376.514 29.868 377.366 33.444 377.366 37.668C377.366 42.108 376.538 45.828 374.882 48.828C373.226 51.828 371.042 54.096 368.33 55.632C365.618 57.144 362.666 57.9 359.474 57.9ZM38.572 93.62H20.32L25.828 87.68V137H13.012V87.68L18.592 93.62H0.304V83.9H38.572V93.62ZM57.6517 137.864C53.4277 137.864 49.7077 137.024 46.4917 135.344C43.2997 133.64 40.7917 131.288 38.9677 128.288C37.1677 125.288 36.2677 121.832 36.2677 117.92C36.2677 113.984 37.1677 110.528 38.9677 107.552C40.7917 104.552 43.2997 102.212 46.4917 100.532C49.7077 98.852 53.4277 98.012 57.6517 98.012C61.8757 98.012 65.5837 98.852 68.7757 100.532C71.9917 102.212 74.4997 104.552 76.2997 107.552C78.1237 110.528 79.0357 113.984 79.0357 117.92C79.0357 121.832 78.1237 125.288 76.2997 128.288C74.4997 131.288 71.9917 133.64 68.7757 135.344C65.5837 137.024 61.8757 137.864 57.6517 137.864ZM57.6517 127.964C59.3797 127.964 60.8677 127.544 62.1157 126.704C63.3637 125.864 64.3237 124.7 64.9957 123.212C65.6677 121.7 66.0037 119.936 66.0037 117.92C66.0037 115.88 65.6677 114.116 64.9957 112.628C64.3237 111.14 63.3637 109.988 62.1157 109.172C60.8677 108.356 59.3797 107.948 57.6517 107.948C55.9477 107.948 54.4597 108.356 53.1877 109.172C51.9397 109.988 50.9797 111.14 50.3077 112.628C49.6357 114.116 49.2997 115.88 49.2997 117.92C49.2997 119.936 49.6357 121.7 50.3077 123.212C50.9797 124.7 51.9397 125.864 53.1877 126.704C54.4597 127.544 55.9477 127.964 57.6517 127.964ZM121.428 83.9C125.268 83.9 128.4 84.44 130.824 85.52C133.248 86.6 135.024 88.112 136.152 90.056C137.304 92 137.88 94.244 137.88 96.788C137.88 99.356 137.376 101.564 136.368 103.412C135.36 105.236 134.088 106.664 132.552 107.696C131.04 108.704 129.492 109.268 127.908 109.388C129.516 109.436 131.196 109.868 132.948 110.684C134.7 111.5 136.188 112.808 137.412 114.608C138.636 116.408 139.248 118.82 139.248 121.844C139.248 124.652 138.684 127.208 137.556 129.512C136.428 131.792 134.556 133.616 131.94 134.984C129.348 136.328 125.832 137 121.392 137H99.3244V83.9H121.428ZM111.564 108.38L107.352 104.924H117.828C120.324 104.924 122.148 104.372 123.3 103.268C124.476 102.164 125.064 100.736 125.064 98.984C125.064 97.808 124.812 96.824 124.308 96.032C123.828 95.24 123.072 94.64 122.04 94.232C121.008 93.824 119.7 93.62 118.116 93.62H105.768L111.564 87.68V108.38ZM118.872 127.244C121.32 127.244 123.144 126.668 124.344 125.516C125.544 124.364 126.144 122.876 126.144 121.052C126.144 120.092 125.976 119.216 125.64 118.424C125.328 117.632 124.848 116.948 124.2 116.372C123.576 115.796 122.796 115.352 121.86 115.04C120.924 114.728 119.856 114.572 118.656 114.572H107.352L111.564 111.116V133.184L105.768 127.244H118.872ZM157.505 137.756C154.793 137.756 152.561 137.324 150.809 136.46C149.081 135.596 147.725 134.432 146.741 132.968C145.781 131.48 145.097 129.824 144.689 128C144.305 126.152 144.113 124.244 144.113 122.276C144.113 121.412 144.113 120.512 144.113 119.576C144.113 118.616 144.113 117.632 144.113 116.624V98.768H156.929V114.5C156.929 115.316 156.929 116.096 156.929 116.84C156.929 117.56 156.929 118.232 156.929 118.856C156.929 120.32 157.073 121.676 157.361 122.924C157.649 124.172 158.213 125.18 159.053 125.948C159.917 126.692 161.153 127.064 162.761 127.064C164.369 127.064 165.713 126.62 166.793 125.732C167.873 124.82 168.689 123.668 169.241 122.276C169.817 120.86 170.105 119.384 170.105 117.848L173.057 120.728C173.057 123.248 172.697 125.552 171.977 127.64C171.257 129.704 170.225 131.492 168.881 133.004C167.537 134.516 165.905 135.692 163.985 136.532C162.089 137.348 159.929 137.756 157.505 137.756ZM170.105 137V98.768H182.921V137H170.105ZM187.799 137V98.768H200.507V137H187.799ZM194.135 93.404C192.215 93.404 190.523 92.9 189.059 91.892C187.619 90.884 186.899 89.456 186.899 87.608C186.899 85.736 187.619 84.308 189.059 83.324C190.523 82.316 192.215 81.812 194.135 81.812C196.079 81.812 197.771 82.316 199.211 83.324C200.651 84.308 201.371 85.736 201.371 87.608C201.371 89.48 200.651 90.92 199.211 91.928C197.771 92.912 196.079 93.404 194.135 93.404ZM218.891 80.732V137H206.255V80.732H218.891ZM241.039 137.9C237.847 137.9 234.883 137.144 232.147 135.632C229.435 134.096 227.251 131.828 225.595 128.828C223.939 125.828 223.111 122.108 223.111 117.668C223.111 113.444 223.963 109.868 225.667 106.94C227.371 104.012 229.591 101.792 232.327 100.28C235.063 98.768 237.967 98.012 241.039 98.012C244.087 98.012 246.859 98.804 249.355 100.388C251.851 101.948 253.843 104.084 255.331 106.796C256.819 109.508 257.563 112.616 257.563 116.12C257.563 116.24 257.563 116.36 257.563 116.48C257.563 116.6 257.563 116.732 257.563 116.876L252.595 116.912C252.595 116.84 252.595 116.768 252.595 116.696C252.595 116.6 252.595 116.516 252.595 116.444C252.595 114.74 252.187 113.312 251.371 112.16C250.579 110.984 249.571 110.096 248.347 109.496C247.123 108.872 245.851 108.56 244.531 108.56C242.395 108.56 240.499 109.28 238.843 110.72C237.187 112.136 236.359 114.452 236.359 117.668C236.359 120.884 237.187 123.236 238.843 124.724C240.499 126.212 242.395 126.956 244.531 126.956C245.899 126.956 247.195 126.632 248.419 125.984C249.643 125.336 250.639 124.412 251.407 123.212C252.199 121.988 252.595 120.536 252.595 118.856L257.563 119.144C257.563 122.624 256.819 125.78 255.331 128.612C253.867 131.444 251.887 133.7 249.391 135.38C246.895 137.06 244.111 137.9 241.039 137.9ZM252.595 137V80.732H265.447V137H252.595ZM328.87 83.9L313.282 118.748V137H300.466V118.748L284.986 83.9H298.558L309.43 112.592H304.354L315.226 83.9H328.87ZM346.074 137.864C341.85 137.864 338.13 137.024 334.914 135.344C331.722 133.64 329.214 131.288 327.39 128.288C325.59 125.288 324.69 121.832 324.69 117.92C324.69 113.984 325.59 110.528 327.39 107.552C329.214 104.552 331.722 102.212 334.914 100.532C338.13 98.852 341.85 98.012 346.074 98.012C350.298 98.012 354.006 98.852 357.198 100.532C360.414 102.212 362.922 104.552 364.722 107.552C366.546 110.528 367.458 113.984 367.458 117.92C367.458 121.832 366.546 125.288 364.722 128.288C362.922 131.288 360.414 133.64 357.198 135.344C354.006 137.024 350.298 137.864 346.074 137.864ZM346.074 127.964C347.802 127.964 349.29 127.544 350.538 126.704C351.786 125.864 352.746 124.7 353.418 123.212C354.09 121.7 354.426 119.936 354.426 117.92C354.426 115.88 354.09 114.116 353.418 112.628C352.746 111.14 351.786 109.988 350.538 109.172C349.29 108.356 347.802 107.948 346.074 107.948C344.37 107.948 342.882 108.356 341.61 109.172C340.362 109.988 339.402 111.14 338.73 112.628C338.058 114.116 337.722 115.88 337.722 117.92C337.722 119.936 338.058 121.7 338.73 123.212C339.402 124.7 340.362 125.864 341.61 126.704C342.882 127.544 344.37 127.964 346.074 127.964ZM384.958 137.756C382.246 137.756 380.014 137.324 378.262 136.46C376.534 135.596 375.178 134.432 374.194 132.968C373.234 131.48 372.55 129.824 372.142 128C371.758 126.152 371.566 124.244 371.566 122.276C371.566 121.412 371.566 120.512 371.566 119.576C371.566 118.616 371.566 117.632 371.566 116.624V98.768H384.382V114.5C384.382 115.316 384.382 116.096 384.382 116.84C384.382 117.56 384.382 118.232 384.382 118.856C384.382 120.32 384.526 121.676 384.814 122.924C385.102 124.172 385.666 125.18 386.506 125.948C387.37 126.692 388.606 127.064 390.214 127.064C391.822 127.064 393.166 126.62 394.246 125.732C395.326 124.82 396.142 123.668 396.694 122.276C397.27 120.86 397.558 119.384 397.558 117.848L400.51 120.728C400.51 123.248 400.15 125.552 399.43 127.64C398.71 129.704 397.678 131.492 396.334 133.004C394.99 134.516 393.358 135.692 391.438 136.532C389.542 137.348 387.382 137.756 384.958 137.756ZM397.558 137V98.768H410.374V137H397.558ZM415.973 137V98.768H428.825V112.448L426.413 110.72C426.749 108.824 427.277 107.096 427.997 105.536C428.717 103.952 429.641 102.608 430.769 101.504C431.921 100.376 433.253 99.512 434.765 98.912C436.301 98.312 438.029 98.012 439.949 98.012C441.509 98.012 442.697 98.12 443.513 98.336C444.353 98.552 444.881 98.72 445.097 98.84L443.189 110.18C442.973 110.06 442.493 109.88 441.749 109.64C441.005 109.376 440.081 109.244 438.977 109.244C437.081 109.244 435.473 109.556 434.153 110.18C432.857 110.78 431.813 111.596 431.021 112.628C430.253 113.66 429.689 114.812 429.329 116.084C428.993 117.356 428.825 118.628 428.825 119.9V137H415.973ZM2.176 217V163.9H20.644C24.196 163.9 27.436 164.548 30.364 165.844C33.316 167.14 35.86 168.976 37.996 171.352C40.132 173.704 41.776 176.5 42.928 179.74C44.08 182.956 44.656 186.496 44.656 190.36C44.656 194.2 44.08 197.752 42.928 201.016C41.776 204.256 40.132 207.076 37.996 209.476C35.86 211.852 33.316 213.7 30.364 215.02C27.436 216.34 24.196 217 20.644 217H2.176ZM15.064 213.22L9.268 207.28H18.916C21.268 207.28 23.392 206.596 25.288 205.228C27.208 203.86 28.744 201.916 29.896 199.396C31.048 196.852 31.624 193.84 31.624 190.36C31.624 186.856 31.048 183.856 29.896 181.36C28.744 178.864 27.208 176.956 25.288 175.636C23.392 174.292 21.268 173.62 18.916 173.62H9.268L15.064 167.68V213.22ZM49.3554 217V178.768H62.2074V192.448L59.7954 190.72C60.1314 188.824 60.6594 187.096 61.3794 185.536C62.0994 183.952 63.0234 182.608 64.1514 181.504C65.3034 180.376 66.6354 179.512 68.1474 178.912C69.6834 178.312 71.4114 178.012 73.3314 178.012C74.8914 178.012 76.0794 178.12 76.8954 178.336C77.7354 178.552 78.2634 178.72 78.4794 178.84L76.5714 190.18C76.3554 190.06 75.8754 189.88 75.1314 189.64C74.3874 189.376 73.4634 189.244 72.3594 189.244C70.4634 189.244 68.8554 189.556 67.5354 190.18C66.2394 190.78 65.1954 191.596 64.4034 192.628C63.6354 193.66 63.0714 194.812 62.7114 196.084C62.3754 197.356 62.2074 198.628 62.2074 199.9V217H49.3554ZM86.1454 201.556V193.528H110.085L109.005 195.4C109.005 195.208 109.005 195.016 109.005 194.824C109.005 194.608 109.005 194.416 109.005 194.248C109.005 193.168 108.729 192.1 108.177 191.044C107.625 189.964 106.749 189.076 105.549 188.38C104.349 187.66 102.777 187.3 100.833 187.3C98.9134 187.3 97.2814 187.708 95.9374 188.524C94.6174 189.316 93.6094 190.492 92.9134 192.052C92.2414 193.588 91.9054 195.448 91.9054 197.632C91.9054 199.912 92.2294 201.868 92.8774 203.5C93.5494 205.108 94.5694 206.344 95.9374 207.208C97.3054 208.048 99.0574 208.468 101.193 208.468C102.513 208.468 103.641 208.36 104.577 208.144C105.537 207.928 106.305 207.652 106.881 207.316C107.481 206.956 107.925 206.572 108.213 206.164C108.525 205.732 108.717 205.312 108.789 204.904H121.461C121.317 206.56 120.741 208.168 119.733 209.728C118.725 211.264 117.333 212.656 115.557 213.904C113.805 215.128 111.669 216.1 109.149 216.82C106.653 217.54 103.821 217.9 100.653 217.9C96.3094 217.9 92.5294 217.06 89.3134 215.38C86.0974 213.676 83.6014 211.324 81.8254 208.324C80.0734 205.324 79.1974 201.868 79.1974 197.956C79.1974 193.972 80.0974 190.492 81.8974 187.516C83.6974 184.516 86.2054 182.188 89.4214 180.532C92.6614 178.852 96.4054 178.012 100.653 178.012C105.045 178.012 108.837 178.864 112.029 180.568C115.221 182.248 117.681 184.624 119.409 187.696C121.137 190.768 122.001 194.38 122.001 198.532C122.001 199.18 121.989 199.768 121.965 200.296C121.941 200.824 121.905 201.244 121.857 201.556H86.1454ZM138.89 217.828C136.13 217.828 133.67 217.396 131.51 216.532C129.35 215.644 127.646 214.36 126.398 212.68C125.15 211 124.526 208.96 124.526 206.56C124.526 203.8 125.306 201.568 126.866 199.864C128.426 198.136 130.454 196.828 132.95 195.94C135.446 195.028 138.086 194.44 140.87 194.176C144.902 193.792 147.65 193.456 149.114 193.168C150.602 192.856 151.346 192.328 151.346 191.584C151.346 191.56 151.346 191.548 151.346 191.548C151.346 191.524 151.346 191.512 151.346 191.512C151.346 190.36 150.734 189.424 149.51 188.704C148.31 187.984 146.654 187.624 144.542 187.624C142.31 187.624 140.618 188.032 139.466 188.848C138.338 189.64 137.774 190.852 137.774 192.484H125.102C125.102 189.34 125.966 186.7 127.694 184.564C129.446 182.404 131.798 180.772 134.75 179.668C137.702 178.564 141.002 178.012 144.65 178.012C148.106 178.012 151.31 178.528 154.262 179.56C157.238 180.592 159.638 182.164 161.462 184.276C163.31 186.388 164.234 189.076 164.234 192.34C164.234 192.844 164.234 193.348 164.234 193.852C164.234 194.356 164.234 194.86 164.234 195.364V208.036C164.234 209.044 164.258 210.028 164.306 210.988C164.354 211.924 164.486 212.788 164.702 213.58C164.966 214.444 165.29 215.176 165.674 215.776C166.082 216.376 166.406 216.784 166.646 217H154.082C153.89 216.808 153.602 216.436 153.218 215.884C152.858 215.332 152.546 214.696 152.282 213.976C151.97 213.016 151.742 212.092 151.598 211.204C151.454 210.292 151.382 209.212 151.382 207.964L154.118 209.836C153.446 211.492 152.342 212.92 150.806 214.12C149.294 215.32 147.506 216.244 145.442 216.892C143.378 217.516 141.194 217.828 138.89 217.828ZM142.562 208.504C144.05 208.504 145.478 208.204 146.846 207.604C148.214 207.004 149.342 206.044 150.23 204.724C151.118 203.404 151.562 201.64 151.562 199.432V196.804L154.802 199.684C153.218 200.236 151.418 200.704 149.402 201.088C147.386 201.448 145.418 201.724 143.498 201.916C141.458 202.132 139.934 202.48 138.926 202.96C137.918 203.44 137.414 204.232 137.414 205.336C137.414 206.392 137.846 207.184 138.71 207.712C139.598 208.24 140.882 208.504 142.562 208.504ZM193.683 217V202.888C193.683 201.52 193.683 200.32 193.683 199.288C193.683 198.232 193.683 197.368 193.683 196.696C193.683 195.712 193.635 194.764 193.539 193.852C193.443 192.916 193.227 192.064 192.891 191.296C192.555 190.528 192.039 189.916 191.343 189.46C190.671 189.004 189.747 188.776 188.571 188.776C187.539 188.776 186.639 189.004 185.871 189.46C185.127 189.916 184.503 190.552 183.999 191.368C183.495 192.16 183.123 193.108 182.883 194.212C182.643 195.292 182.523 196.456 182.523 197.704L179.607 194.86C179.607 191.476 180.183 188.524 181.335 186.004C182.511 183.484 184.179 181.528 186.339 180.136C188.523 178.72 191.115 178.012 194.115 178.012C197.379 178.012 199.899 178.72 201.675 180.136C203.451 181.528 204.687 183.376 205.383 185.68C206.079 187.984 206.427 190.504 206.427 193.24C206.427 194.296 206.427 195.748 206.427 197.596C206.427 199.42 206.427 201.64 206.427 204.256V217H193.683ZM169.707 217V178.768H182.523V217H169.707ZM217.515 217V202.924C217.515 201.532 217.515 200.32 217.515 199.288C217.515 198.232 217.515 197.356 217.515 196.66C217.515 195.58 217.455 194.572 217.335 193.636C217.215 192.676 216.987 191.836 216.651 191.116C216.315 190.372 215.799 189.796 215.103 189.388C214.431 188.98 213.531 188.776 212.403 188.776C211.371 188.776 210.471 189.004 209.703 189.46C208.959 189.916 208.347 190.552 207.867 191.368C207.387 192.16 207.027 193.096 206.787 194.176C206.547 195.256 206.427 196.396 206.427 197.596L203.511 194.752C203.511 191.392 204.087 188.464 205.239 185.968C206.391 183.472 208.047 181.528 210.207 180.136C212.367 178.72 214.959 178.012 217.983 178.012C221.223 178.012 223.731 178.708 225.507 180.1C227.307 181.492 228.567 183.328 229.287 185.608C230.007 187.888 230.367 190.396 230.367 193.132C230.367 194.236 230.367 195.676 230.367 197.452C230.367 199.228 230.367 201.424 230.367 204.04V217H217.515ZM265.048 217H252.16V163.9H271.42C275.476 163.9 278.968 164.692 281.896 166.276C284.848 167.86 287.116 170.02 288.7 172.756C290.308 175.468 291.112 178.528 291.112 181.936C291.112 185.344 290.308 188.452 288.7 191.26C287.092 194.068 284.812 196.312 281.86 197.992C278.932 199.672 275.452 200.512 271.42 200.512H265.048V217ZM265.048 196.696L259.252 190.828H270.088C271.624 190.828 272.992 190.492 274.192 189.82C275.416 189.124 276.376 188.116 277.072 186.796C277.792 185.476 278.152 183.856 278.152 181.936C278.152 179.992 277.804 178.408 277.108 177.184C276.412 175.96 275.452 175.06 274.228 174.484C273.028 173.908 271.648 173.62 270.088 173.62H259.252L265.048 167.68V196.696ZM295.543 217V178.768H308.395V192.448L305.983 190.72C306.319 188.824 306.847 187.096 307.567 185.536C308.287 183.952 309.211 182.608 310.339 181.504C311.491 180.376 312.823 179.512 314.335 178.912C315.871 178.312 317.599 178.012 319.519 178.012C321.079 178.012 322.267 178.12 323.083 178.336C323.923 178.552 324.451 178.72 324.667 178.84L322.759 190.18C322.543 190.06 322.063 189.88 321.319 189.64C320.575 189.376 319.651 189.244 318.547 189.244C316.651 189.244 315.043 189.556 313.723 190.18C312.427 190.78 311.383 191.596 310.591 192.628C309.823 193.66 309.259 194.812 308.899 196.084C308.563 197.356 308.395 198.628 308.395 199.9V217H295.543ZM346.769 217.864C342.545 217.864 338.825 217.024 335.609 215.344C332.417 213.64 329.909 211.288 328.085 208.288C326.285 205.288 325.385 201.832 325.385 197.92C325.385 193.984 326.285 190.528 328.085 187.552C329.909 184.552 332.417 182.212 335.609 180.532C338.825 178.852 342.545 178.012 346.769 178.012C350.993 178.012 354.701 178.852 357.893 180.532C361.109 182.212 363.617 184.552 365.417 187.552C367.241 190.528 368.153 193.984 368.153 197.92C368.153 201.832 367.241 205.288 365.417 208.288C363.617 211.288 361.109 213.64 357.893 215.344C354.701 217.024 350.993 217.864 346.769 217.864ZM346.769 207.964C348.497 207.964 349.985 207.544 351.233 206.704C352.481 205.864 353.441 204.7 354.113 203.212C354.785 201.7 355.121 199.936 355.121 197.92C355.121 195.88 354.785 194.116 354.113 192.628C353.441 191.14 352.481 189.988 351.233 189.172C349.985 188.356 348.497 187.948 346.769 187.948C345.065 187.948 343.577 188.356 342.305 189.172C341.057 189.988 340.097 191.14 339.425 192.628C338.753 194.116 338.417 195.88 338.417 197.92C338.417 199.936 338.753 201.7 339.425 203.212C340.097 204.7 341.057 205.864 342.305 206.704C343.577 207.544 345.065 207.964 346.769 207.964ZM366.97 233.56C366.25 233.56 365.554 233.536 364.882 233.488C364.186 233.464 363.61 233.44 363.154 233.416V223.984C363.586 224.056 364.15 224.116 364.846 224.164C365.518 224.236 366.226 224.272 366.97 224.272C367.978 224.272 368.806 224.14 369.454 223.876C370.102 223.612 370.594 223.264 370.93 222.832C371.29 222.4 371.542 221.932 371.686 221.428C371.83 220.948 371.902 220.468 371.902 219.988V178.768H384.682V220.276C384.682 221.86 384.466 223.432 384.034 224.992C383.626 226.552 382.81 227.98 381.586 229.276C380.386 230.572 378.61 231.604 376.258 232.372C373.906 233.164 370.81 233.56 366.97 233.56ZM378.418 173.404C376.474 173.404 374.782 172.9 373.342 171.892C371.902 170.884 371.182 169.456 371.182 167.608C371.182 165.736 371.902 164.308 373.342 163.324C374.782 162.316 376.474 161.812 378.418 161.812C380.338 161.812 382.018 162.316 383.458 163.324C384.898 164.308 385.618 165.736 385.618 167.608C385.618 169.456 384.898 170.884 383.458 171.892C382.018 172.9 380.338 173.404 378.418 173.404ZM395.13 201.556V193.528H419.07L417.99 195.4C417.99 195.208 417.99 195.016 417.99 194.824C417.99 194.608 417.99 194.416 417.99 194.248C417.99 193.168 417.714 192.1 417.162 191.044C416.61 189.964 415.734 189.076 414.534 188.38C413.334 187.66 411.762 187.3 409.818 187.3C407.898 187.3 406.266 187.708 404.922 188.524C403.602 189.316 402.594 190.492 401.898 192.052C401.226 193.588 400.89 195.448 400.89 197.632C400.89 199.912 401.214 201.868 401.862 203.5C402.534 205.108 403.554 206.344 404.922 207.208C406.29 208.048 408.042 208.468 410.178 208.468C411.498 208.468 412.626 208.36 413.562 208.144C414.522 207.928 415.29 207.652 415.866 207.316C416.466 206.956 416.91 206.572 417.198 206.164C417.51 205.732 417.702 205.312 417.774 204.904H430.446C430.302 206.56 429.726 208.168 428.718 209.728C427.71 211.264 426.318 212.656 424.542 213.904C422.79 215.128 420.654 216.1 418.134 216.82C415.638 217.54 412.806 217.9 409.638 217.9C405.294 217.9 401.514 217.06 398.298 215.38C395.082 213.676 392.586 211.324 390.81 208.324C389.058 205.324 388.182 201.868 388.182 197.956C388.182 193.972 389.082 190.492 390.882 187.516C392.682 184.516 395.19 182.188 398.406 180.532C401.646 178.852 405.39 178.012 409.638 178.012C414.03 178.012 417.822 178.864 421.014 180.568C424.206 182.248 426.666 184.624 428.394 187.696C430.122 190.768 430.986 194.38 430.986 198.532C430.986 199.18 430.974 199.768 430.95 200.296C430.926 200.824 430.89 201.244 430.842 201.556H395.13ZM454.679 217.9C450.287 217.9 446.471 217.036 443.231 215.308C440.015 213.58 437.531 211.204 435.779 208.18C434.027 205.156 433.151 201.676 433.151 197.74C433.151 193.78 434.027 190.324 435.779 187.372C437.531 184.42 440.015 182.128 443.231 180.496C446.471 178.84 450.287 178.012 454.679 178.012C457.943 178.012 460.823 178.48 463.319 179.416C465.815 180.352 467.891 181.6 469.547 183.16C471.227 184.696 472.499 186.388 473.363 188.236C474.227 190.06 474.659 191.872 474.659 193.672C474.659 193.72 474.659 193.78 474.659 193.852C474.659 193.9 474.659 193.948 474.659 193.996H461.951C461.951 193.852 461.939 193.72 461.915 193.6C461.915 193.48 461.891 193.348 461.843 193.204C461.651 192.388 461.291 191.596 460.763 190.828C460.235 190.036 459.467 189.388 458.459 188.884C457.475 188.356 456.179 188.092 454.571 188.092C452.915 188.092 451.451 188.464 450.179 189.208C448.931 189.952 447.947 191.044 447.227 192.484C446.531 193.9 446.183 195.652 446.183 197.74C446.183 199.756 446.531 201.532 447.227 203.068C447.947 204.58 448.931 205.756 450.179 206.596C451.451 207.412 452.915 207.82 454.571 207.82C456.227 207.82 457.571 207.568 458.603 207.064C459.659 206.536 460.451 205.84 460.979 204.976C461.507 204.088 461.819 203.104 461.915 202.024H474.659C474.659 203.848 474.227 205.696 473.363 207.568C472.523 209.416 471.263 211.12 469.583 212.68C467.927 214.24 465.851 215.5 463.355 216.46C460.859 217.42 457.967 217.9 454.679 217.9ZM498.637 217.864C497.077 217.864 495.445 217.732 493.741 217.468C492.037 217.228 490.453 216.724 488.989 215.956C487.525 215.188 486.337 214.036 485.425 212.5C484.513 210.964 484.057 208.924 484.057 206.38C484.057 205.828 484.057 205.288 484.057 204.76C484.057 204.208 484.057 203.656 484.057 203.104V188.488H475.381V178.768H476.713C478.369 178.768 479.689 178.696 480.673 178.552C481.657 178.408 482.389 178.048 482.869 177.472C483.349 176.896 483.661 176.008 483.805 174.808C483.973 173.584 484.057 171.892 484.057 169.732V166.204H496.945V178.768H507.745V188.488H496.945V200.62C496.945 201.028 496.945 201.424 496.945 201.808C496.945 202.168 496.945 202.54 496.945 202.924C496.945 204.436 497.125 205.696 497.485 206.704C497.845 207.712 498.781 208.216 500.293 208.216C501.133 208.216 501.925 208.132 502.669 207.964C503.413 207.796 503.965 207.64 504.325 207.496V216.928C503.797 217.144 503.041 217.348 502.057 217.54C501.073 217.756 499.933 217.864 498.637 217.864Z" fill="white"/>
</svg>
