<svg width="323" height="249" viewBox="0 0 323 249" fill="none" xmlns="http://www.w3.org/2000/svg">
<path d="M6.7 44L0.82 2.7H11.096L15.072 42.18L13.672 42.096L20.056 2.7H32.376L38.732 42.096L37.332 42.18L41.308 2.7H51.584L45.704 44H30.416L25.712 9.364H26.72L22.016 44H6.7ZM57.8561 31.988V25.744H76.4761L75.6361 27.2C75.6361 27.0507 75.6361 26.9013 75.6361 26.752C75.6361 26.584 75.6361 26.4347 75.6361 26.304C75.6361 25.464 75.4215 24.6333 74.9921 23.812C74.5628 22.972 73.8815 22.2813 72.9481 21.74C72.0148 21.18 70.7921 20.9 69.2801 20.9C67.7868 20.9 66.5175 21.2173 65.4721 21.852C64.4455 22.468 63.6615 23.3827 63.1201 24.596C62.5975 25.7907 62.3361 27.2373 62.3361 28.936C62.3361 30.7093 62.5881 32.2307 63.0921 33.5C63.6148 34.7507 64.4081 35.712 65.4721 36.384C66.5361 37.0373 67.8988 37.364 69.5601 37.364C70.5868 37.364 71.4641 37.28 72.1921 37.112C72.9388 36.944 73.5361 36.7293 73.9841 36.468C74.4508 36.188 74.7961 35.8893 75.0201 35.572C75.2628 35.236 75.4121 34.9093 75.4681 34.592H85.3241C85.2121 35.88 84.7641 37.1307 83.9801 38.344C83.1961 39.5387 82.1135 40.6213 80.7321 41.592C79.3695 42.544 77.7081 43.3 75.7481 43.86C73.8068 44.42 71.6041 44.7 69.1401 44.7C65.7615 44.7 62.8215 44.0467 60.3201 42.74C57.8188 41.4147 55.8775 39.5853 54.4961 37.252C53.1335 34.9187 52.4521 32.2307 52.4521 29.188C52.4521 26.0893 53.1521 23.3827 54.5521 21.068C55.9521 18.7347 57.9028 16.924 60.4041 15.636C62.9241 14.3293 65.8361 13.676 69.1401 13.676C72.5561 13.676 75.5055 14.3387 77.9881 15.664C80.4708 16.9707 82.3841 18.8187 83.7281 21.208C85.0721 23.5973 85.7441 26.4067 85.7441 29.636C85.7441 30.14 85.7348 30.5973 85.7161 31.008C85.6975 31.4187 85.6695 31.7453 85.6321 31.988H57.8561ZM90.996 11.296C89.54 11.296 88.3547 10.876 87.44 10.036C86.5253 9.17733 86.068 8.00133 86.068 6.508C86.068 4.996 86.572 3.75466 87.58 2.784C88.588 1.81333 90.016 1.328 91.864 1.328C93.712 1.328 95.1307 1.944 96.12 3.176C97.128 4.38933 97.632 5.96667 97.632 7.908C97.632 9.73733 97.1653 11.352 96.232 12.752C95.3173 14.1333 94.1693 15.3093 92.788 16.28C91.4253 17.232 90.0813 17.988 88.756 18.548L87.608 16.224C88.4667 15.8507 89.344 15.3653 90.24 14.768C91.1547 14.152 91.92 13.48 92.536 12.752C93.152 12.0053 93.4693 11.268 93.488 10.54C93.4133 10.6147 93.152 10.764 92.704 10.988C92.2747 11.1933 91.7053 11.296 90.996 11.296ZM101.975 44V14.264H111.971V24.904L110.095 23.56C110.357 22.0853 110.767 20.7413 111.327 19.528C111.887 18.296 112.606 17.2507 113.483 16.392C114.379 15.5147 115.415 14.8427 116.591 14.376C117.786 13.9093 119.13 13.676 120.623 13.676C121.837 13.676 122.761 13.76 123.395 13.928C124.049 14.096 124.459 14.2267 124.627 14.32L123.143 23.14C122.975 23.0467 122.602 22.9067 122.023 22.72C121.445 22.5147 120.726 22.412 119.867 22.412C118.393 22.412 117.142 22.6547 116.115 23.14C115.107 23.6067 114.295 24.2413 113.679 25.044C113.082 25.8467 112.643 26.7427 112.363 27.732C112.102 28.7213 111.971 29.7107 111.971 30.7V44H101.975ZM131.145 31.988V25.744H149.765L148.925 27.2C148.925 27.0507 148.925 26.9013 148.925 26.752C148.925 26.584 148.925 26.4347 148.925 26.304C148.925 25.464 148.711 24.6333 148.281 23.812C147.852 22.972 147.171 22.2813 146.237 21.74C145.304 21.18 144.081 20.9 142.569 20.9C141.076 20.9 139.807 21.2173 138.761 21.852C137.735 22.468 136.951 23.3827 136.409 24.596C135.887 25.7907 135.625 27.2373 135.625 28.936C135.625 30.7093 135.877 32.2307 136.381 33.5C136.904 34.7507 137.697 35.712 138.761 36.384C139.825 37.0373 141.188 37.364 142.849 37.364C143.876 37.364 144.753 37.28 145.481 37.112C146.228 36.944 146.825 36.7293 147.273 36.468C147.74 36.188 148.085 35.8893 148.309 35.572C148.552 35.236 148.701 34.9093 148.757 34.592H158.613C158.501 35.88 158.053 37.1307 157.269 38.344C156.485 39.5387 155.403 40.6213 154.021 41.592C152.659 42.544 150.997 43.3 149.037 43.86C147.096 44.42 144.893 44.7 142.429 44.7C139.051 44.7 136.111 44.0467 133.609 42.74C131.108 41.4147 129.167 39.5853 127.785 37.252C126.423 34.9187 125.741 32.2307 125.741 29.188C125.741 26.0893 126.441 23.3827 127.841 21.068C129.241 18.7347 131.192 16.924 133.693 15.636C136.213 14.3293 139.125 13.676 142.429 13.676C145.845 13.676 148.795 14.3387 151.277 15.664C153.76 16.9707 155.673 18.8187 157.017 21.208C158.361 23.5973 159.033 26.4067 159.033 29.636C159.033 30.14 159.024 30.5973 159.005 31.008C158.987 31.4187 158.959 31.7453 158.921 31.988H131.145ZM209.72 2.7V44H199.696V24.54L204.204 27.228H181.412L185.92 24.68V44H175.896V2.7H185.92V22.3L181.412 19.668H204.204L199.696 22.272V2.7H209.72ZM218.981 31.988V25.744H237.601L236.761 27.2C236.761 27.0507 236.761 26.9013 236.761 26.752C236.761 26.584 236.761 26.4347 236.761 26.304C236.761 25.464 236.546 24.6333 236.117 23.812C235.688 22.972 235.006 22.2813 234.073 21.74C233.14 21.18 231.917 20.9 230.405 20.9C228.912 20.9 227.642 21.2173 226.597 21.852C225.57 22.468 224.786 23.3827 224.245 24.596C223.722 25.7907 223.461 27.2373 223.461 28.936C223.461 30.7093 223.713 32.2307 224.217 33.5C224.74 34.7507 225.533 35.712 226.597 36.384C227.661 37.0373 229.024 37.364 230.685 37.364C231.712 37.364 232.589 37.28 233.317 37.112C234.064 36.944 234.661 36.7293 235.109 36.468C235.576 36.188 235.921 35.8893 236.145 35.572C236.388 35.236 236.537 34.9093 236.593 34.592H246.449C246.337 35.88 245.889 37.1307 245.105 38.344C244.321 39.5387 243.238 40.6213 241.857 41.592C240.494 42.544 238.833 43.3 236.873 43.86C234.932 44.42 232.729 44.7 230.265 44.7C226.886 44.7 223.946 44.0467 221.445 42.74C218.944 41.4147 217.002 39.5853 215.621 37.252C214.258 34.9187 213.577 32.2307 213.577 29.188C213.577 26.0893 214.277 23.3827 215.677 21.068C217.077 18.7347 219.028 16.924 221.529 15.636C224.049 14.3293 226.961 13.676 230.265 13.676C233.681 13.676 236.63 14.3387 239.113 15.664C241.596 16.9707 243.509 18.8187 244.853 21.208C246.197 23.5973 246.869 26.4067 246.869 29.636C246.869 30.14 246.86 30.5973 246.841 31.008C246.822 31.4187 246.794 31.7453 246.757 31.988H218.981ZM260.84 0.235998V44H251.012V0.235998H260.84ZM266.163 56.236V14.264H276.159V56.236H266.163ZM285.147 44.7C282.795 44.7 280.639 44.056 278.679 42.768C276.737 41.4613 275.188 39.716 274.031 37.532C272.873 35.3293 272.295 32.8747 272.295 30.168C272.295 30.0933 272.295 30.0187 272.295 29.944C272.295 29.8507 272.295 29.7573 272.295 29.664L276.159 29.58C276.159 29.636 276.159 29.7013 276.159 29.776C276.159 29.832 276.159 29.8787 276.159 29.916C276.159 31.2227 276.457 32.352 277.055 33.304C277.671 34.2373 278.455 34.956 279.407 35.46C280.377 35.9453 281.376 36.188 282.403 36.188C284.064 36.188 285.539 35.6093 286.827 34.452C288.115 33.2947 288.759 31.4653 288.759 28.964C288.759 26.4627 288.115 24.6613 286.827 23.56C285.557 22.44 284.083 21.88 282.403 21.88C281.395 21.88 280.405 22.1227 279.435 22.608C278.483 23.0747 277.699 23.7653 277.083 24.68C276.467 25.576 276.159 26.6867 276.159 28.012L272.295 27.76C272.295 25.0347 272.873 22.6173 274.031 20.508C275.188 18.3987 276.737 16.7373 278.679 15.524C280.639 14.292 282.795 13.676 285.147 13.676C287.555 13.676 289.813 14.264 291.923 15.44C294.051 16.616 295.768 18.3427 297.075 20.62C298.4 22.8973 299.063 25.6787 299.063 28.964C299.063 32.4173 298.419 35.3107 297.131 37.644C295.843 39.9773 294.144 41.7413 292.035 42.936C289.925 44.112 287.629 44.7 285.147 44.7ZM30.556 74.26H16.36L20.644 69.64V108H10.676V69.64L15.016 74.26H0.792V66.7H30.556V74.26ZM45.9513 108.672C42.666 108.672 39.7726 108.019 37.2713 106.712C34.7886 105.387 32.838 103.557 31.4193 101.224C30.0193 98.8907 29.3193 96.2027 29.3193 93.16C29.3193 90.0987 30.0193 87.4107 31.4193 85.096C32.838 82.7627 34.7886 80.9427 37.2713 79.636C39.7726 78.3293 42.666 77.676 45.9513 77.676C49.2366 77.676 52.1206 78.3293 54.6033 79.636C57.1046 80.9427 59.0553 82.7627 60.4553 85.096C61.874 87.4107 62.5833 90.0987 62.5833 93.16C62.5833 96.2027 61.874 98.8907 60.4553 101.224C59.0553 103.557 57.1046 105.387 54.6033 106.712C52.1206 108.019 49.2366 108.672 45.9513 108.672ZM45.9513 100.972C47.2953 100.972 48.4526 100.645 49.4233 99.992C50.394 99.3387 51.1406 98.4333 51.6633 97.276C52.186 96.1 52.4473 94.728 52.4473 93.16C52.4473 91.5733 52.186 90.2013 51.6633 89.044C51.1406 87.8867 50.394 86.9907 49.4233 86.356C48.4526 85.7213 47.2953 85.404 45.9513 85.404C44.626 85.404 43.4686 85.7213 42.4793 86.356C41.5086 86.9907 40.762 87.8867 40.2393 89.044C39.7166 90.2013 39.4553 91.5733 39.4553 93.16C39.4553 94.728 39.7166 96.1 40.2393 97.276C40.762 98.4333 41.5086 99.3387 42.4793 99.992C43.4686 100.645 44.626 100.972 45.9513 100.972ZM96.6666 66.7C99.6532 66.7 102.089 67.12 103.975 67.96C105.86 68.8 107.241 69.976 108.119 71.488C109.015 73 109.463 74.7453 109.463 76.724C109.463 78.7213 109.071 80.4387 108.287 81.876C107.503 83.2947 106.513 84.4053 105.319 85.208C104.143 85.992 102.939 86.4307 101.707 86.524C102.957 86.5613 104.264 86.8973 105.627 87.532C106.989 88.1667 108.147 89.184 109.099 90.584C110.051 91.984 110.527 93.86 110.527 96.212C110.527 98.396 110.088 100.384 109.211 102.176C108.333 103.949 106.877 105.368 104.843 106.432C102.827 107.477 100.092 108 96.6386 108H79.4746V66.7H96.6666ZM88.9946 85.74L85.7186 83.052H93.8666C95.8079 83.052 97.2266 82.6227 98.1226 81.764C99.0372 80.9053 99.4946 79.7947 99.4946 78.432C99.4946 77.5173 99.2986 76.752 98.9066 76.136C98.5332 75.52 97.9452 75.0533 97.1426 74.736C96.3399 74.4187 95.3226 74.26 94.0906 74.26H84.4866L88.9946 69.64V85.74ZM94.6786 100.412C96.5826 100.412 98.0012 99.964 98.9346 99.068C99.8679 98.172 100.335 97.0147 100.335 95.596C100.335 94.8493 100.204 94.168 99.9426 93.552C99.6999 92.936 99.3266 92.404 98.8226 91.956C98.3372 91.508 97.7306 91.1627 97.0026 90.92C96.2746 90.6773 95.4439 90.556 94.5106 90.556H85.7186L88.9946 87.868V105.032L84.4866 100.412H94.6786ZM125.282 108.588C123.172 108.588 121.436 108.252 120.074 107.58C118.73 106.908 117.675 106.003 116.91 104.864C116.163 103.707 115.631 102.419 115.314 101C115.015 99.5627 114.866 98.0787 114.866 96.548C114.866 95.876 114.866 95.176 114.866 94.448C114.866 93.7013 114.866 92.936 114.866 92.152V78.264H124.834V90.5C124.834 91.1347 124.834 91.7413 124.834 92.32C124.834 92.88 124.834 93.4027 124.834 93.888C124.834 95.0267 124.946 96.0813 125.17 97.052C125.394 98.0227 125.832 98.8067 126.486 99.404C127.158 99.9827 128.119 100.272 129.37 100.272C130.62 100.272 131.666 99.9267 132.506 99.236C133.346 98.5267 133.98 97.6307 134.41 96.548C134.858 95.4467 135.082 94.2987 135.082 93.104L137.378 95.344C137.378 97.304 137.098 99.096 136.538 100.72C135.978 102.325 135.175 103.716 134.13 104.892C133.084 106.068 131.815 106.983 130.322 107.636C128.847 108.271 127.167 108.588 125.282 108.588ZM135.082 108V78.264H145.05V108H135.082ZM149.4 108V78.264H159.284V108H149.4ZM154.328 74.092C152.834 74.092 151.518 73.7 150.38 72.916C149.26 72.132 148.7 71.0213 148.7 69.584C148.7 68.128 149.26 67.0173 150.38 66.252C151.518 65.468 152.834 65.076 154.328 65.076C155.84 65.076 157.156 65.468 158.276 66.252C159.396 67.0173 159.956 68.128 159.956 69.584C159.956 71.04 159.396 72.16 158.276 72.944C157.156 73.7093 155.84 74.092 154.328 74.092ZM174.137 64.236V108H164.309V64.236H174.137ZM191.92 108.7C189.437 108.7 187.132 108.112 185.004 106.936C182.894 105.741 181.196 103.977 179.908 101.644C178.62 99.3107 177.976 96.4173 177.976 92.964C177.976 89.6787 178.638 86.8973 179.964 84.62C181.289 82.3427 183.016 80.616 185.144 79.44C187.272 78.264 189.53 77.676 191.92 77.676C194.29 77.676 196.446 78.292 198.388 79.524C200.329 80.7373 201.878 82.3987 203.036 84.508C204.193 86.6173 204.772 89.0347 204.772 91.76C204.772 91.8533 204.772 91.9467 204.772 92.04C204.772 92.1333 204.772 92.236 204.772 92.348L200.908 92.376C200.908 92.32 200.908 92.264 200.908 92.208C200.908 92.1333 200.908 92.068 200.908 92.012C200.908 90.6867 200.59 89.576 199.956 88.68C199.34 87.7653 198.556 87.0747 197.604 86.608C196.652 86.1227 195.662 85.88 194.636 85.88C192.974 85.88 191.5 86.44 190.212 87.56C188.924 88.6613 188.28 90.4627 188.28 92.964C188.28 95.4653 188.924 97.2947 190.212 98.452C191.5 99.6093 192.974 100.188 194.636 100.188C195.7 100.188 196.708 99.936 197.66 99.432C198.612 98.928 199.386 98.2093 199.984 97.276C200.6 96.324 200.908 95.1947 200.908 93.888L204.772 94.112C204.772 96.8187 204.193 99.2733 203.036 101.476C201.897 103.679 200.357 105.433 198.416 106.74C196.474 108.047 194.309 108.7 191.92 108.7ZM200.908 108V64.236H210.904V108H200.908ZM34.476 130.7L22.352 157.804V172H12.384V157.804L0.344 130.7H10.9L19.356 153.016H15.408L23.864 130.7H34.476ZM48.4123 172.672C45.1269 172.672 42.2336 172.019 39.7323 170.712C37.2496 169.387 35.2989 167.557 33.8803 165.224C32.4803 162.891 31.7803 160.203 31.7803 157.16C31.7803 154.099 32.4803 151.411 33.8803 149.096C35.2989 146.763 37.2496 144.943 39.7323 143.636C42.2336 142.329 45.1269 141.676 48.4123 141.676C51.6976 141.676 54.5816 142.329 57.0643 143.636C59.5656 144.943 61.5163 146.763 62.9163 149.096C64.3349 151.411 65.0443 154.099 65.0443 157.16C65.0443 160.203 64.3349 162.891 62.9163 165.224C61.5163 167.557 59.5656 169.387 57.0643 170.712C54.5816 172.019 51.6976 172.672 48.4123 172.672ZM48.4123 164.972C49.7563 164.972 50.9136 164.645 51.8843 163.992C52.8549 163.339 53.6016 162.433 54.1243 161.276C54.6469 160.1 54.9083 158.728 54.9083 157.16C54.9083 155.573 54.6469 154.201 54.1243 153.044C53.6016 151.887 52.8549 150.991 51.8843 150.356C50.9136 149.721 49.7563 149.404 48.4123 149.404C47.0869 149.404 45.9296 149.721 44.9402 150.356C43.9696 150.991 43.2229 151.887 42.7003 153.044C42.1776 154.201 41.9163 155.573 41.9163 157.16C41.9163 158.728 42.1776 160.1 42.7003 161.276C43.2229 162.433 43.9696 163.339 44.9402 163.992C45.9296 164.645 47.0869 164.972 48.4123 164.972ZM79.2115 172.588C77.1022 172.588 75.3662 172.252 74.0035 171.58C72.6595 170.908 71.6048 170.003 70.8395 168.864C70.0928 167.707 69.5608 166.419 69.2435 165C68.9448 163.563 68.7955 162.079 68.7955 160.548C68.7955 159.876 68.7955 159.176 68.7955 158.448C68.7955 157.701 68.7955 156.936 68.7955 156.152V142.264H78.7635V154.5C78.7635 155.135 78.7635 155.741 78.7635 156.32C78.7635 156.88 78.7635 157.403 78.7635 157.888C78.7635 159.027 78.8755 160.081 79.0995 161.052C79.3235 162.023 79.7622 162.807 80.4155 163.404C81.0875 163.983 82.0488 164.272 83.2995 164.272C84.5502 164.272 85.5955 163.927 86.4355 163.236C87.2755 162.527 87.9102 161.631 88.3395 160.548C88.7875 159.447 89.0115 158.299 89.0115 157.104L91.3075 159.344C91.3075 161.304 91.0275 163.096 90.4675 164.72C89.9075 166.325 89.1048 167.716 88.0595 168.892C87.0142 170.068 85.7448 170.983 84.2515 171.636C82.7768 172.271 81.0968 172.588 79.2115 172.588ZM89.0115 172V142.264H98.9795V172H89.0115ZM103.889 172V142.264H113.885V152.904L112.009 151.56C112.271 150.085 112.681 148.741 113.241 147.528C113.801 146.296 114.52 145.251 115.397 144.392C116.293 143.515 117.329 142.843 118.505 142.376C119.7 141.909 121.044 141.676 122.537 141.676C123.751 141.676 124.675 141.76 125.309 141.928C125.963 142.096 126.373 142.227 126.541 142.32L125.057 151.14C124.889 151.047 124.516 150.907 123.937 150.72C123.359 150.515 122.64 150.412 121.781 150.412C120.307 150.412 119.056 150.655 118.029 151.14C117.021 151.607 116.209 152.241 115.593 153.044C114.996 153.847 114.557 154.743 114.277 155.732C114.016 156.721 113.885 157.711 113.885 158.7V172H103.889ZM142.826 172V130.7H157.19C159.953 130.7 162.473 131.204 164.75 132.212C167.046 133.22 169.025 134.648 170.686 136.496C172.347 138.325 173.626 140.5 174.522 143.02C175.418 145.521 175.866 148.275 175.866 151.28C175.866 154.267 175.418 157.029 174.522 159.568C173.626 162.088 172.347 164.281 170.686 166.148C169.025 167.996 167.046 169.433 164.75 170.46C162.473 171.487 159.953 172 157.19 172H142.826ZM152.85 169.06L148.342 164.44H155.846C157.675 164.44 159.327 163.908 160.802 162.844C162.295 161.78 163.49 160.268 164.386 158.308C165.282 156.329 165.73 153.987 165.73 151.28C165.73 148.555 165.282 146.221 164.386 144.28C163.49 142.339 162.295 140.855 160.802 139.828C159.327 138.783 157.675 138.26 155.846 138.26H148.342L152.85 133.64V169.06ZM180.077 172V142.264H190.073V152.904L188.197 151.56C188.458 150.085 188.869 148.741 189.429 147.528C189.989 146.296 190.707 145.251 191.585 144.392C192.481 143.515 193.517 142.843 194.693 142.376C195.887 141.909 197.231 141.676 198.725 141.676C199.938 141.676 200.862 141.76 201.497 141.928C202.15 142.096 202.561 142.227 202.729 142.32L201.245 151.14C201.077 151.047 200.703 150.907 200.125 150.72C199.546 150.515 198.827 150.412 197.969 150.412C196.494 150.412 195.243 150.655 194.217 151.14C193.209 151.607 192.397 152.241 191.781 153.044C191.183 153.847 190.745 154.743 190.465 155.732C190.203 156.721 190.073 157.711 190.073 158.7V172H180.077ZM209.247 159.988V153.744H227.867L227.027 155.2C227.027 155.051 227.027 154.901 227.027 154.752C227.027 154.584 227.027 154.435 227.027 154.304C227.027 153.464 226.812 152.633 226.383 151.812C225.953 150.972 225.272 150.281 224.339 149.74C223.405 149.18 222.183 148.9 220.671 148.9C219.177 148.9 217.908 149.217 216.863 149.852C215.836 150.468 215.052 151.383 214.511 152.596C213.988 153.791 213.727 155.237 213.727 156.936C213.727 158.709 213.979 160.231 214.483 161.5C215.005 162.751 215.799 163.712 216.863 164.384C217.927 165.037 219.289 165.364 220.951 165.364C221.977 165.364 222.855 165.28 223.583 165.112C224.329 164.944 224.927 164.729 225.375 164.468C225.841 164.188 226.187 163.889 226.411 163.572C226.653 163.236 226.803 162.909 226.859 162.592H236.715C236.603 163.88 236.155 165.131 235.371 166.344C234.587 167.539 233.504 168.621 232.123 169.592C230.76 170.544 229.099 171.3 227.139 171.86C225.197 172.42 222.995 172.7 220.531 172.7C217.152 172.7 214.212 172.047 211.711 170.74C209.209 169.415 207.268 167.585 205.887 165.252C204.524 162.919 203.843 160.231 203.843 157.188C203.843 154.089 204.543 151.383 205.943 149.068C207.343 146.735 209.293 144.924 211.795 143.636C214.315 142.329 217.227 141.676 220.531 141.676C223.947 141.676 226.896 142.339 229.379 143.664C231.861 144.971 233.775 146.819 235.119 149.208C236.463 151.597 237.135 154.407 237.135 157.636C237.135 158.14 237.125 158.597 237.107 159.008C237.088 159.419 237.06 159.745 237.023 159.988H209.247ZM250.826 172.644C248.679 172.644 246.766 172.308 245.086 171.636C243.406 170.945 242.081 169.947 241.11 168.64C240.139 167.333 239.654 165.747 239.654 163.88C239.654 161.733 240.261 159.997 241.474 158.672C242.687 157.328 244.265 156.311 246.206 155.62C248.147 154.911 250.201 154.453 252.366 154.248C255.502 153.949 257.639 153.688 258.778 153.464C259.935 153.221 260.514 152.811 260.514 152.232C260.514 152.213 260.514 152.204 260.514 152.204C260.514 152.185 260.514 152.176 260.514 152.176C260.514 151.28 260.038 150.552 259.086 149.992C258.153 149.432 256.865 149.152 255.222 149.152C253.486 149.152 252.17 149.469 251.274 150.104C250.397 150.72 249.958 151.663 249.958 152.932H240.102C240.102 150.487 240.774 148.433 242.118 146.772C243.481 145.092 245.31 143.823 247.606 142.964C249.902 142.105 252.469 141.676 255.306 141.676C257.994 141.676 260.486 142.077 262.782 142.88C265.097 143.683 266.963 144.905 268.382 146.548C269.819 148.191 270.538 150.281 270.538 152.82C270.538 153.212 270.538 153.604 270.538 153.996C270.538 154.388 270.538 154.78 270.538 155.172V165.028C270.538 165.812 270.557 166.577 270.594 167.324C270.631 168.052 270.734 168.724 270.902 169.34C271.107 170.012 271.359 170.581 271.658 171.048C271.975 171.515 272.227 171.832 272.414 172H262.642C262.493 171.851 262.269 171.561 261.97 171.132C261.69 170.703 261.447 170.208 261.242 169.648C260.999 168.901 260.822 168.183 260.71 167.492C260.598 166.783 260.542 165.943 260.542 164.972L262.67 166.428C262.147 167.716 261.289 168.827 260.094 169.76C258.918 170.693 257.527 171.412 255.922 171.916C254.317 172.401 252.618 172.644 250.826 172.644ZM253.682 165.392C254.839 165.392 255.95 165.159 257.014 164.692C258.078 164.225 258.955 163.479 259.646 162.452C260.337 161.425 260.682 160.053 260.682 158.336V156.292L263.202 158.532C261.97 158.961 260.57 159.325 259.002 159.624C257.434 159.904 255.903 160.119 254.41 160.268C252.823 160.436 251.638 160.707 250.854 161.08C250.07 161.453 249.678 162.069 249.678 162.928C249.678 163.749 250.014 164.365 250.686 164.776C251.377 165.187 252.375 165.392 253.682 165.392ZM293.998 172V161.024C293.998 159.96 293.998 159.027 293.998 158.224C293.998 157.403 293.998 156.731 293.998 156.208C293.998 155.443 293.961 154.705 293.886 153.996C293.812 153.268 293.644 152.605 293.382 152.008C293.121 151.411 292.72 150.935 292.178 150.58C291.656 150.225 290.937 150.048 290.022 150.048C289.22 150.048 288.52 150.225 287.922 150.58C287.344 150.935 286.858 151.429 286.466 152.064C286.074 152.68 285.785 153.417 285.598 154.276C285.412 155.116 285.318 156.021 285.318 156.992L283.05 154.78C283.05 152.148 283.498 149.852 284.394 147.892C285.309 145.932 286.606 144.411 288.286 143.328C289.985 142.227 292.001 141.676 294.334 141.676C296.873 141.676 298.833 142.227 300.214 143.328C301.596 144.411 302.557 145.848 303.098 147.64C303.64 149.432 303.91 151.392 303.91 153.52C303.91 154.341 303.91 155.471 303.91 156.908C303.91 158.327 303.91 160.053 303.91 162.088V172H293.998ZM275.35 172V142.264H285.318V172H275.35ZM312.534 172V161.052C312.534 159.969 312.534 159.027 312.534 158.224C312.534 157.403 312.534 156.721 312.534 156.18C312.534 155.34 312.488 154.556 312.394 153.828C312.301 153.081 312.124 152.428 311.862 151.868C311.601 151.289 311.2 150.841 310.658 150.524C310.136 150.207 309.436 150.048 308.558 150.048C307.756 150.048 307.056 150.225 306.458 150.58C305.88 150.935 305.404 151.429 305.03 152.064C304.657 152.68 304.377 153.408 304.19 154.248C304.004 155.088 303.91 155.975 303.91 156.908L301.642 154.696C301.642 152.083 302.09 149.805 302.986 147.864C303.882 145.923 305.17 144.411 306.85 143.328C308.53 142.227 310.546 141.676 312.898 141.676C315.418 141.676 317.369 142.217 318.75 143.3C320.15 144.383 321.13 145.811 321.69 147.584C322.25 149.357 322.53 151.308 322.53 153.436C322.53 154.295 322.53 155.415 322.53 156.796C322.53 158.177 322.53 159.885 322.53 161.92V172H312.534ZM12.272 236H2.248V194.7H17.228C20.3827 194.7 23.0987 195.316 25.376 196.548C27.672 197.78 29.436 199.46 30.668 201.588C31.9187 203.697 32.544 206.077 32.544 208.728C32.544 211.379 31.9187 213.796 30.668 215.98C29.4173 218.164 27.644 219.909 25.348 221.216C23.0707 222.523 20.364 223.176 17.228 223.176H12.272V236ZM12.272 220.208L7.764 215.644H16.192C17.3867 215.644 18.4507 215.383 19.384 214.86C20.336 214.319 21.0827 213.535 21.624 212.508C22.184 211.481 22.464 210.221 22.464 208.728C22.464 207.216 22.1933 205.984 21.652 205.032C21.1107 204.08 20.364 203.38 19.412 202.932C18.4787 202.484 17.4053 202.26 16.192 202.26H7.764L12.272 197.64V220.208ZM36.5455 236V206.264H46.5415V216.904L44.6655 215.56C44.9268 214.085 45.3375 212.741 45.8975 211.528C46.4575 210.296 47.1762 209.251 48.0535 208.392C48.9495 207.515 49.9855 206.843 51.1615 206.376C52.3562 205.909 53.7002 205.676 55.1935 205.676C56.4068 205.676 57.3308 205.76 57.9655 205.928C58.6188 206.096 59.0295 206.227 59.1975 206.32L57.7135 215.14C57.5455 215.047 57.1722 214.907 56.5935 214.72C56.0148 214.515 55.2962 214.412 54.4375 214.412C52.9628 214.412 51.7122 214.655 50.6855 215.14C49.6775 215.607 48.8655 216.241 48.2495 217.044C47.6522 217.847 47.2135 218.743 46.9335 219.732C46.6722 220.721 46.5415 221.711 46.5415 222.7V236H36.5455ZM76.9435 236.672C73.6582 236.672 70.7648 236.019 68.2635 234.712C65.7808 233.387 63.8302 231.557 62.4115 229.224C61.0115 226.891 60.3115 224.203 60.3115 221.16C60.3115 218.099 61.0115 215.411 62.4115 213.096C63.8302 210.763 65.7808 208.943 68.2635 207.636C70.7648 206.329 73.6582 205.676 76.9435 205.676C80.2288 205.676 83.1128 206.329 85.5955 207.636C88.0968 208.943 90.0475 210.763 91.4475 213.096C92.8662 215.411 93.5755 218.099 93.5755 221.16C93.5755 224.203 92.8662 226.891 91.4475 229.224C90.0475 231.557 88.0968 233.387 85.5955 234.712C83.1128 236.019 80.2288 236.672 76.9435 236.672ZM76.9435 228.972C78.2875 228.972 79.4448 228.645 80.4155 227.992C81.3862 227.339 82.1328 226.433 82.6555 225.276C83.1782 224.1 83.4395 222.728 83.4395 221.16C83.4395 219.573 83.1782 218.201 82.6555 217.044C82.1328 215.887 81.3862 214.991 80.4155 214.356C79.4448 213.721 78.2875 213.404 76.9435 213.404C75.6182 213.404 74.4608 213.721 73.4715 214.356C72.5008 214.991 71.7542 215.887 71.2315 217.044C70.7088 218.201 70.4475 219.573 70.4475 221.16C70.4475 222.728 70.7088 224.1 71.2315 225.276C71.7542 226.433 72.5008 227.339 73.4715 227.992C74.4608 228.645 75.6182 228.972 76.9435 228.972ZM93.2107 248.88C92.6507 248.88 92.1094 248.861 91.5867 248.824C91.0454 248.805 90.5974 248.787 90.2427 248.768V241.432C90.5787 241.488 91.0174 241.535 91.5587 241.572C92.0814 241.628 92.6321 241.656 93.2107 241.656C93.9947 241.656 94.6387 241.553 95.1427 241.348C95.6468 241.143 96.0294 240.872 96.2908 240.536C96.5708 240.2 96.7668 239.836 96.8788 239.444C96.9908 239.071 97.0468 238.697 97.0468 238.324V206.264H106.987V238.548C106.987 239.78 106.819 241.003 106.483 242.216C106.165 243.429 105.531 244.54 104.579 245.548C103.645 246.556 102.264 247.359 100.435 247.956C98.6054 248.572 96.1974 248.88 93.2107 248.88ZM102.115 202.092C100.603 202.092 99.2868 201.7 98.1668 200.916C97.0468 200.132 96.4868 199.021 96.4868 197.584C96.4868 196.128 97.0468 195.017 98.1668 194.252C99.2868 193.468 100.603 193.076 102.115 193.076C103.608 193.076 104.915 193.468 106.035 194.252C107.155 195.017 107.715 196.128 107.715 197.584C107.715 199.021 107.155 200.132 106.035 200.916C104.915 201.7 103.608 202.092 102.115 202.092ZM115.669 223.988V217.744H134.289L133.449 219.2C133.449 219.051 133.449 218.901 133.449 218.752C133.449 218.584 133.449 218.435 133.449 218.304C133.449 217.464 133.234 216.633 132.805 215.812C132.375 214.972 131.694 214.281 130.761 213.74C129.827 213.18 128.605 212.9 127.093 212.9C125.599 212.9 124.33 213.217 123.285 213.852C122.258 214.468 121.474 215.383 120.933 216.596C120.41 217.791 120.149 219.237 120.149 220.936C120.149 222.709 120.401 224.231 120.905 225.5C121.427 226.751 122.221 227.712 123.285 228.384C124.349 229.037 125.711 229.364 127.373 229.364C128.399 229.364 129.277 229.28 130.005 229.112C130.751 228.944 131.349 228.729 131.797 228.468C132.263 228.188 132.609 227.889 132.833 227.572C133.075 227.236 133.225 226.909 133.281 226.592H143.137C143.025 227.88 142.577 229.131 141.793 230.344C141.009 231.539 139.926 232.621 138.545 233.592C137.182 234.544 135.521 235.3 133.561 235.86C131.619 236.42 129.417 236.7 126.953 236.7C123.574 236.7 120.634 236.047 118.133 234.74C115.631 233.415 113.69 231.585 112.309 229.252C110.946 226.919 110.265 224.231 110.265 221.188C110.265 218.089 110.965 215.383 112.365 213.068C113.765 210.735 115.715 208.924 118.217 207.636C120.737 206.329 123.649 205.676 126.953 205.676C130.369 205.676 133.318 206.339 135.801 207.664C138.283 208.971 140.197 210.819 141.541 213.208C142.885 215.597 143.557 218.407 143.557 221.636C143.557 222.14 143.547 222.597 143.529 223.008C143.51 223.419 143.482 223.745 143.445 223.988H115.669ZM162.54 236.7C159.124 236.7 156.156 236.028 153.636 234.684C151.135 233.34 149.203 231.492 147.84 229.14C146.477 226.788 145.796 224.081 145.796 221.02C145.796 217.94 146.477 215.252 147.84 212.956C149.203 210.66 151.135 208.877 153.636 207.608C156.156 206.32 159.124 205.676 162.54 205.676C165.079 205.676 167.319 206.04 169.26 206.768C171.201 207.496 172.816 208.467 174.104 209.68C175.411 210.875 176.4 212.191 177.072 213.628C177.744 215.047 178.08 216.456 178.08 217.856C178.08 217.893 178.08 217.94 178.08 217.996C178.08 218.033 178.08 218.071 178.08 218.108H168.196C168.196 217.996 168.187 217.893 168.168 217.8C168.168 217.707 168.149 217.604 168.112 217.492C167.963 216.857 167.683 216.241 167.272 215.644C166.861 215.028 166.264 214.524 165.48 214.132C164.715 213.721 163.707 213.516 162.456 213.516C161.168 213.516 160.029 213.805 159.04 214.384C158.069 214.963 157.304 215.812 156.744 216.932C156.203 218.033 155.932 219.396 155.932 221.02C155.932 222.588 156.203 223.969 156.744 225.164C157.304 226.34 158.069 227.255 159.04 227.908C160.029 228.543 161.168 228.86 162.456 228.86C163.744 228.86 164.789 228.664 165.592 228.272C166.413 227.861 167.029 227.32 167.44 226.648C167.851 225.957 168.093 225.192 168.168 224.352H178.08C178.08 225.771 177.744 227.208 177.072 228.664C176.419 230.101 175.439 231.427 174.132 232.64C172.844 233.853 171.229 234.833 169.288 235.58C167.347 236.327 165.097 236.7 162.54 236.7ZM197.285 236.672C196.072 236.672 194.803 236.569 193.477 236.364C192.152 236.177 190.92 235.785 189.781 235.188C188.643 234.591 187.719 233.695 187.009 232.5C186.3 231.305 185.945 229.719 185.945 227.74C185.945 227.311 185.945 226.891 185.945 226.48C185.945 226.051 185.945 225.621 185.945 225.192V213.824H179.197V206.264H180.233C181.521 206.264 182.548 206.208 183.313 206.096C184.079 205.984 184.648 205.704 185.021 205.256C185.395 204.808 185.637 204.117 185.749 203.184C185.88 202.232 185.945 200.916 185.945 199.236V196.492H195.969V206.264H204.369V213.824H195.969V223.26C195.969 223.577 195.969 223.885 195.969 224.184C195.969 224.464 195.969 224.753 195.969 225.052C195.969 226.228 196.109 227.208 196.389 227.992C196.669 228.776 197.397 229.168 198.573 229.168C199.227 229.168 199.843 229.103 200.421 228.972C201 228.841 201.429 228.72 201.709 228.608V235.944C201.299 236.112 200.711 236.271 199.945 236.42C199.18 236.588 198.293 236.672 197.285 236.672Z" fill="white"/>
</svg>
