<svg width="194" height="42" viewBox="0 0 194 42" fill="none" xmlns="http://www.w3.org/2000/svg">
<path d="M12.56 17.9L12.78 12.44L24.58 32H16.8L8.86 17.9L11.98 18.32L6.88 25.24L7.46 20.78V32H0.32V2.5H7.46V17.52L6.14 16.9L16.5 2.5H24.02L12.56 17.9ZM29.6997 23.42V18.96H42.9997L42.3997 20C42.3997 19.8933 42.3997 19.7867 42.3997 19.68C42.3997 19.56 42.3997 19.4533 42.3997 19.36C42.3997 18.76 42.2464 18.1667 41.9397 17.58C41.633 16.98 41.1464 16.4867 40.4797 16.1C39.813 15.7 38.9397 15.5 37.8597 15.5C36.793 15.5 35.8864 15.7267 35.1397 16.18C34.4064 16.62 33.8464 17.2733 33.4597 18.14C33.0864 18.9933 32.8997 20.0267 32.8997 21.24C32.8997 22.5067 33.0797 23.5933 33.4397 24.5C33.813 25.3933 34.3797 26.08 35.1397 26.56C35.8997 27.0267 36.873 27.26 38.0597 27.26C38.793 27.26 39.4197 27.2 39.9397 27.08C40.473 26.96 40.8997 26.8067 41.2197 26.62C41.553 26.42 41.7997 26.2067 41.9597 25.98C42.133 25.74 42.2397 25.5067 42.2797 25.28H49.3197C49.2397 26.2 48.9197 27.0933 48.3597 27.96C47.7997 28.8133 47.0264 29.5867 46.0397 30.28C45.0664 30.96 43.8797 31.5 42.4797 31.9C41.093 32.3 39.5197 32.5 37.7597 32.5C35.3464 32.5 33.2464 32.0333 31.4597 31.1C29.673 30.1533 28.2864 28.8467 27.2997 27.18C26.3264 25.5133 25.8397 23.5933 25.8397 21.42C25.8397 19.2067 26.3397 17.2733 27.3397 15.62C28.3397 13.9533 29.733 12.66 31.5197 11.74C33.3197 10.8067 35.3997 10.34 37.7597 10.34C40.1997 10.34 42.3064 10.8133 44.0797 11.76C45.853 12.6933 47.2197 14.0133 48.1797 15.72C49.1397 17.4267 49.6197 19.4333 49.6197 21.74C49.6197 22.1 49.613 22.4267 49.5997 22.72C49.5864 23.0133 49.5664 23.2467 49.5397 23.42H29.6997ZM54.215 41.26C53.495 41.26 52.8617 41.2333 52.315 41.18C51.7683 41.14 51.4217 41.0933 51.275 41.04V35.78C51.4483 35.86 51.755 35.92 52.195 35.96C52.6483 36 53.1283 36.02 53.635 36.02C54.235 36.02 54.7817 35.9 55.275 35.66C55.7817 35.4333 56.2217 35.1067 56.595 34.68C56.9683 34.2667 57.255 33.76 57.455 33.16L57.735 32.34L50.415 10.76H57.855L62.035 27.9H61.235L65.255 10.76H72.575L65.455 32.8C64.855 34.6133 64.1217 36.1467 63.255 37.4C62.4017 38.6667 61.2617 39.6267 59.835 40.28C58.4083 40.9333 56.535 41.26 54.215 41.26ZM87.4828 2.5C89.6161 2.5 91.3561 2.8 92.7028 3.4C94.0495 4 95.0361 4.84 95.6628 5.92C96.3028 7 96.6228 8.24667 96.6228 9.66C96.6228 11.0867 96.3428 12.3133 95.7828 13.34C95.2228 14.3533 94.5161 15.1467 93.6628 15.72C92.8228 16.28 91.9628 16.5933 91.0828 16.66C91.9761 16.6867 92.9095 16.9267 93.8828 17.38C94.8561 17.8333 95.6828 18.56 96.3628 19.56C97.0428 20.56 97.3828 21.9 97.3828 23.58C97.3828 25.14 97.0695 26.56 96.4428 27.84C95.8161 29.1067 94.7761 30.12 93.3228 30.88C91.8828 31.6267 89.9295 32 87.4628 32H75.2028V2.5H87.4828ZM82.0028 16.1L79.6628 14.18H85.4828C86.8695 14.18 87.8828 13.8733 88.5228 13.26C89.1761 12.6467 89.5028 11.8533 89.5028 10.88C89.5028 10.2267 89.3628 9.68 89.0828 9.24C88.8161 8.8 88.3961 8.46667 87.8228 8.24C87.2495 8.01333 86.5228 7.9 85.6428 7.9H78.7828L82.0028 4.6V16.1ZM86.0628 26.58C87.4228 26.58 88.4361 26.26 89.1028 25.62C89.7695 24.98 90.1028 24.1533 90.1028 23.14C90.1028 22.6067 90.0095 22.12 89.8228 21.68C89.6495 21.24 89.3828 20.86 89.0228 20.54C88.6761 20.22 88.2428 19.9733 87.7228 19.8C87.2028 19.6267 86.6095 19.54 85.9428 19.54H79.6628L82.0028 17.62V29.88L78.7828 26.58H86.0628ZM112.017 32.48C109.67 32.48 107.603 32.0133 105.817 31.08C104.043 30.1333 102.65 28.8267 101.637 27.16C100.637 25.4933 100.137 23.5733 100.137 21.4C100.137 19.2133 100.637 17.2933 101.637 15.64C102.65 13.9733 104.043 12.6733 105.817 11.74C107.603 10.8067 109.67 10.34 112.017 10.34C114.363 10.34 116.423 10.8067 118.197 11.74C119.983 12.6733 121.377 13.9733 122.377 15.64C123.39 17.2933 123.897 19.2133 123.897 21.4C123.897 23.5733 123.39 25.4933 122.377 27.16C121.377 28.8267 119.983 30.1333 118.197 31.08C116.423 32.0133 114.363 32.48 112.017 32.48ZM112.017 26.98C112.977 26.98 113.803 26.7467 114.497 26.28C115.19 25.8133 115.723 25.1667 116.097 24.34C116.47 23.5 116.657 22.52 116.657 21.4C116.657 20.2667 116.47 19.2867 116.097 18.46C115.723 17.6333 115.19 16.9933 114.497 16.54C113.803 16.0867 112.977 15.86 112.017 15.86C111.07 15.86 110.243 16.0867 109.537 16.54C108.843 16.9933 108.31 17.6333 107.937 18.46C107.563 19.2867 107.377 20.2667 107.377 21.4C107.377 22.52 107.563 23.5 107.937 24.34C108.31 25.1667 108.843 25.8133 109.537 26.28C110.243 26.7467 111.07 26.98 112.017 26.98ZM134.41 32.46C132.877 32.46 131.51 32.22 130.31 31.74C129.11 31.2467 128.164 30.5333 127.47 29.6C126.777 28.6667 126.43 27.5333 126.43 26.2C126.43 24.6667 126.864 23.4267 127.73 22.48C128.597 21.52 129.724 20.7933 131.11 20.3C132.497 19.7933 133.964 19.4667 135.51 19.32C137.75 19.1067 139.277 18.92 140.09 18.76C140.917 18.5867 141.33 18.2933 141.33 17.88C141.33 17.8667 141.33 17.86 141.33 17.86C141.33 17.8467 141.33 17.84 141.33 17.84C141.33 17.2 140.99 16.68 140.31 16.28C139.644 15.88 138.724 15.68 137.55 15.68C136.31 15.68 135.37 15.9067 134.73 16.36C134.104 16.8 133.79 17.4733 133.79 18.38H126.75C126.75 16.6333 127.23 15.1667 128.19 13.98C129.164 12.78 130.47 11.8733 132.11 11.26C133.75 10.6467 135.584 10.34 137.61 10.34C139.53 10.34 141.31 10.6267 142.95 11.2C144.604 11.7733 145.937 12.6467 146.95 13.82C147.977 14.9933 148.49 16.4867 148.49 18.3C148.49 18.58 148.49 18.86 148.49 19.14C148.49 19.42 148.49 19.7 148.49 19.98V27.02C148.49 27.58 148.504 28.1267 148.53 28.66C148.557 29.18 148.63 29.66 148.75 30.1C148.897 30.58 149.077 30.9867 149.29 31.32C149.517 31.6533 149.697 31.88 149.83 32H142.85C142.744 31.8933 142.584 31.6867 142.37 31.38C142.17 31.0733 141.997 30.72 141.85 30.32C141.677 29.7867 141.55 29.2733 141.47 28.78C141.39 28.2733 141.35 27.6733 141.35 26.98L142.87 28.02C142.497 28.94 141.884 29.7333 141.03 30.4C140.19 31.0667 139.197 31.58 138.05 31.94C136.904 32.2867 135.69 32.46 134.41 32.46ZM136.45 27.28C137.277 27.28 138.07 27.1133 138.83 26.78C139.59 26.4467 140.217 25.9133 140.71 25.18C141.204 24.4467 141.45 23.4667 141.45 22.24V20.78L143.25 22.38C142.37 22.6867 141.37 22.9467 140.25 23.16C139.13 23.36 138.037 23.5133 136.97 23.62C135.837 23.74 134.99 23.9333 134.43 24.2C133.87 24.4667 133.59 24.9067 133.59 25.52C133.59 26.1067 133.83 26.5467 134.31 26.84C134.804 27.1333 135.517 27.28 136.45 27.28ZM152.642 32V10.76H159.782V18.36L158.442 17.4C158.629 16.3467 158.922 15.3867 159.322 14.52C159.722 13.64 160.235 12.8933 160.862 12.28C161.502 11.6533 162.242 11.1733 163.082 10.84C163.935 10.5067 164.895 10.34 165.962 10.34C166.829 10.34 167.489 10.4 167.942 10.52C168.409 10.64 168.702 10.7333 168.822 10.8L167.762 17.1C167.642 17.0333 167.375 16.9333 166.962 16.8C166.549 16.6533 166.035 16.58 165.422 16.58C164.369 16.58 163.475 16.7533 162.742 17.1C162.022 17.4333 161.442 17.8867 161.002 18.46C160.575 19.0333 160.262 19.6733 160.062 20.38C159.875 21.0867 159.782 21.7933 159.782 22.5V32H152.642ZM180.292 32.5C178.519 32.5 176.872 32.08 175.352 31.24C173.845 30.3867 172.632 29.1267 171.712 27.46C170.792 25.7933 170.332 23.7267 170.332 21.26C170.332 18.9133 170.805 16.9267 171.752 15.3C172.699 13.6733 173.932 12.44 175.452 11.6C176.972 10.76 178.585 10.34 180.292 10.34C181.985 10.34 183.525 10.78 184.912 11.66C186.299 12.5267 187.405 13.7133 188.232 15.22C189.059 16.7267 189.472 18.4533 189.472 20.4C189.472 20.4667 189.472 20.5333 189.472 20.6C189.472 20.6667 189.472 20.74 189.472 20.82L186.712 20.84C186.712 20.8 186.712 20.76 186.712 20.72C186.712 20.6667 186.712 20.62 186.712 20.58C186.712 19.6333 186.485 18.84 186.032 18.2C185.592 17.5467 185.032 17.0533 184.352 16.72C183.672 16.3733 182.965 16.2 182.232 16.2C181.045 16.2 179.992 16.6 179.072 17.4C178.152 18.1867 177.692 19.4733 177.692 21.26C177.692 23.0467 178.152 24.3533 179.072 25.18C179.992 26.0067 181.045 26.42 182.232 26.42C182.992 26.42 183.712 26.24 184.392 25.88C185.072 25.52 185.625 25.0067 186.052 24.34C186.492 23.66 186.712 22.8533 186.712 21.92L189.472 22.08C189.472 24.0133 189.059 25.7667 188.232 27.34C187.419 28.9133 186.319 30.1667 184.932 31.1C183.545 32.0333 181.999 32.5 180.292 32.5ZM186.712 32V0.739998H193.852V32H186.712Z" fill="white"/>
</svg>
